<?xml version="1.0" encoding="utf-8" ?>
<svg xmlns="http://www.w3.org/2000/svg" xmlns:xlink="http://www.w3.org/1999/xlink" width="227" height="379" viewBox="0 0 227 379" preserveAspectRatio="xMidYMid meet">
    <defs>
		<linearGradient id="gradient_0" gradientUnits="userSpaceOnUse" x1="213.96799" y1="145.92415" x2="199.84354" y2="141.11319">
			<stop offset="0" stop-color="#1E1C1D"/>
			<stop offset="1" stop-color="#525252"/>
		</linearGradient>
	</defs>
	<path fill="url(#gradient_0)" d="M202.323 134.873L215.486 151.678L212.56 151.519C211.777 151.408 210.899 151.523 210.134 151.339C209.261 151.129 206.653 149.993 206.25 149.375C206.237 148.993 206.19 148.832 205.999 148.501L205.114 148.22C203.715 147.913 200.998 146.821 199.712 146.087L199.805 145.917L199.625 145.75C200.012 144.27 200.622 142.97 201.043 141.534C201.26 140.791 201.215 140.003 201.429 139.301C201.699 138.412 201.442 137.668 201.54 136.778C201.609 136.145 202.023 135.429 202.323 134.873Z"/>
	<defs>
		<linearGradient id="gradient_1" gradientUnits="userSpaceOnUse" x1="201.76663" y1="137.02357" x2="193.10074" y2="135.11256">
			<stop offset="0" stop-color="#515050"/>
			<stop offset="1" stop-color="#858485"/>
		</linearGradient>
	</defs>
	<path fill="url(#gradient_1)" d="M195.106 125.788L202.323 134.873C202.023 135.429 201.609 136.145 201.54 136.778C201.442 137.668 201.699 138.412 201.429 139.301C201.215 140.003 201.26 140.791 201.043 141.534C200.622 142.97 200.012 144.27 199.625 145.75L199.805 145.917L199.712 146.087L191.268 142.837C192.252 141.474 193.941 139.956 193.993 138.2L192.627 137.625L192.646 137.125C192.98 136.882 193.351 136.554 193.741 136.413L193.875 136.377C194.489 134.773 194.808 132.9 194.852 131.182C194.897 129.409 194.673 127.516 195.106 125.788Z"/>
	<defs>
		<linearGradient id="gradient_2" gradientUnits="userSpaceOnUse" x1="194.37917" y1="124.29074" x2="176.38051" y2="122.66355">
			<stop offset="0" stop-color="#8B8A8B"/>
			<stop offset="1" stop-color="#F4F4F4"/>
		</linearGradient>
	</defs>
	<path fill="url(#gradient_2)" d="M174.419 136.477L175.955 136.408C176.601 136.008 176.955 135.08 177.341 134.431C178.292 132.828 179.339 131.251 180.037 129.516L180.508 129.189C181.721 128.291 181.331 126.681 181.36 125.326C181.377 124.534 181.635 123.849 181.634 123.051C181.631 120.939 181.226 118.144 180.846 116.072C180.372 113.498 179.556 110.798 178.877 108.267C178.494 106.838 177.886 105.673 178.102 104.15L194.14 124.528L195.106 125.788C194.673 127.516 194.897 129.409 194.852 131.182C194.808 132.9 194.489 134.773 193.875 136.377L193.741 136.413C193.351 136.554 192.98 136.882 192.646 137.125L192.627 137.625L193.993 138.2C193.941 139.956 192.252 141.474 191.268 142.837C190.726 142.65 190.255 142.468 189.769 142.152L174.419 136.477Z"/>
	<path fill="#858484" d="M194.14 124.528L195.106 125.788C194.673 127.516 194.897 129.409 194.852 131.182C194.808 132.9 194.489 134.773 193.875 136.377L193.741 136.413C193.351 136.554 192.98 136.882 192.646 137.125L192.627 137.625L193.993 138.2C193.941 139.956 192.252 141.474 191.268 142.837C190.726 142.65 190.255 142.468 189.769 142.152L190.04 141.786C190.349 141.982 190.374 142.046 190.751 142.001C191.49 141.016 192.917 139.596 192.805 138.286L191.877 137.75C192.024 137.358 192.174 136.977 192.404 136.625C193.7 134.645 194.247 131.596 193.962 129.25C193.865 128.451 193.575 127.548 193.74 126.758L194.14 124.528Z"/>
	<defs>
		<linearGradient id="gradient_3" gradientUnits="userSpaceOnUse" x1="99.931519" y1="297.03238" x2="91.33036" y2="360.2916">
			<stop offset="0" stop-color="#2F2F2F"/>
			<stop offset="1" stop-color="#595758"/>
		</linearGradient>
	</defs>
	<path fill="url(#gradient_3)" d="M54.9547 247.509L55.0452 247.63C56.7588 249.959 57.9672 253.175 59.1875 255.812L63.9951 265.755C64.9012 267.836 66.2973 269.858 67.0503 272.001C67.308 272.734 67.8293 273.335 68.0764 274.073C68.2729 274.661 69.1529 276.692 69.6605 276.958C69.5599 277.806 71.1812 280.372 71.6248 281.262C73.2659 284.555 74.6022 288.269 76.4865 291.388C77.1185 292.435 77.7166 294.897 78.7158 295.534L78.7314 295.662C78.8154 296.247 79.045 296.652 79.336 297.156C79.5378 296.752 79.7746 296.016 80.2337 295.895C81.3573 295.597 82.5795 296.073 83.7685 295.685C84.5227 295.44 85.3199 295.712 86.1115 295.406L86.2252 295.447C87.3314 295.825 89.3843 295.8 90.6353 295.907C91.0613 295.944 91.959 296.083 92.3327 296.257C92.9635 296.552 96.1511 297.421 96.6774 297.314C97.1082 297.642 97.2313 297.422 97.5697 297.593C97.996 297.809 98.8521 298.609 99.3156 298.645C99.6372 298.671 99.9079 298.813 100.212 298.908C101 299.156 101.619 299.669 102.422 299.804C102.808 300.174 103.27 300.149 103.564 300.464C103.883 300.805 104.369 300.92 104.737 301.229C104.991 301.443 105.187 301.535 105.493 301.653C106.001 301.849 106.717 302.098 107.119 302.464C107.284 302.615 107.355 302.625 107.56 302.687C108.405 302.944 109.795 303.494 110.445 304.059C110.839 304.401 111.278 304.39 111.78 304.424L111.877 304.375C111.87 302.236 111.589 299.348 111.975 297.281C112.015 297.063 111.982 296.893 111.956 296.677C111.897 296.169 111.963 295.661 111.9 295.148C111.867 294.873 111.906 294.764 112.001 294.501C112.493 293.144 111.933 291.202 112.189 289.75C112.384 288.64 112.4 286.553 112.218 285.437C112.011 284.171 112.243 282.419 112.25 281.125L112.25 276.125C112.233 275.344 112.08 275.039 112.375 274.25L112.127 273.875L112.377 273.5L112.348 273.394C112.195 272.792 112.38 272.244 112.409 271.637C112.482 270.133 112.47 268.608 112.708 267.119C112.821 269.914 112.263 305.964 112.263 305.964C112.744 306.706 112.226 308.811 112.5 309.125C112.561 309.195 112.92 309.182 112.999 309.251C113.059 309.304 113.116 309.77 113.121 309.875L113.12 328.094L113.262 358.651C113.266 359.818 113.002 363.341 113.78 363.939C113.637 364.38 113.629 364.62 113.256 364.909C113.137 365.409 113.073 365.764 112.671 366.125C111.989 365.695 111.994 365.296 111.736 364.548L111.581 364.451C111.241 364.217 110.988 363.484 110.809 363.107L66.0974 270.919L58.4762 255.243C57.335 252.899 55.4753 250.019 54.9547 247.509Z"/>
	<path fill="#858484" d="M111.736 364.548C112.358 363.658 112.031 362.317 112.091 361.22C112.419 355.241 112.082 349.244 112.649 343.273C112.666 343.094 112.734 343.114 112.878 343.024L112.897 364.625L113.256 364.909C113.137 365.409 113.073 365.764 112.671 366.125C111.989 365.695 111.994 365.296 111.736 364.548Z"/>
	<path fill="#FDFDFD" d="M113.023 58.0787L113.025 41.3404C114.778 41.3406 117.574 40.9704 119.194 41.4818C119.738 41.6537 120.21 41.5404 120.75 41.6284C122.788 41.9608 124.828 42.0885 126.853 42.5473C127.447 42.6819 128.305 42.753 128.831 42.4188L128.857 41.4319L139.911 55.4747C141.474 57.4512 143.591 59.6425 144.809 61.8121L163.197 85.1907C166.952 89.254 170.226 94.0167 173.647 98.375L176.722 102.294C177.162 102.855 177.816 103.503 178.102 104.15C177.886 105.673 178.494 106.838 178.877 108.267C179.556 110.798 180.372 113.498 180.846 116.072C181.226 118.144 181.631 120.939 181.634 123.051C181.635 123.849 181.377 124.534 181.36 125.326C181.331 126.681 181.721 128.291 180.508 129.189L180.037 129.516C179.339 131.251 178.292 132.828 177.341 134.431C176.955 135.08 176.601 136.008 175.955 136.408L174.419 136.477L163.516 132.597L133.488 120.839L112.527 113.493C113.316 112.405 112.995 104.533 113.011 102.712L112.962 96.2312L112.982 91.6451L113.037 80.3913L112.968 78.2941L113.023 58.0787Z"/>
	<path fill="#B4B2B3" d="M112.982 91.6451C113.268 92.5929 113.621 93.5747 113.798 94.5478C113.92 95.2192 113.813 95.9006 114.019 96.5504C114.403 97.7641 114.118 99.8023 114.097 101.108L113.8 101.308L113.688 100.562L113.41 100.924C113.555 101.421 113.684 101.89 113.929 102.348C114.566 103.535 114.391 105.304 115.175 106.427C115.317 106.632 116.013 106.967 116.254 107.122C116.203 107.318 116.11 107.438 116 107.606C115.162 107.145 114.004 106.512 113.738 105.513C113.46 104.473 113.654 103.816 113.06 102.795L113.011 102.712L112.962 96.2312L112.982 91.6451Z"/>
	<defs>
		<linearGradient id="gradient_4" gradientUnits="userSpaceOnUse" x1="114.72839" y1="113.81754" x2="118.87662" y2="110.98716">
			<stop offset="0" stop-color="#868787"/>
			<stop offset="1" stop-color="#B7B5B5"/>
		</linearGradient>
	</defs>
	<path fill="url(#gradient_4)" d="M113.011 102.712L113.06 102.795C113.654 103.816 113.46 104.473 113.738 105.513C114.004 106.512 115.162 107.145 116 107.606C116.11 107.438 116.203 107.318 116.254 107.122C116.867 107.294 116.952 107.512 117.327 108.001C117.35 108.309 117.299 108.538 117.514 108.767C117.738 109.006 117.796 109.319 117.875 109.627C118.261 109.925 118.61 110.218 118.94 110.577L118.94 110.743C118.959 111.209 119.749 112.308 120.112 112.603L120.226 112.693C120.774 113.183 120.903 113.8 121.594 114.195C121.759 114.29 121.792 114.401 121.907 114.536C122.084 114.743 122.503 114.891 122.749 115.001L122.886 115.381L122.4 115.693L122.375 116.25L122.455 116.2C122.878 115.963 123.539 115.996 124 116.127C124.2 116.185 124.327 116.263 124.5 116.375L124.642 116.042L125.25 117.125L125.399 117.116C126.069 117.121 126.292 117.339 127 117.127C127.361 117.443 127.721 117.733 128 118.127L128.194 118.099C128.657 118.039 129.159 118.101 129.625 118.127C130.07 118.536 130.298 118.629 130.375 119.25L130.914 119.035L131.75 119.627L131.887 119.567C132.058 119.498 132.193 119.476 132.374 119.457C132.592 119.715 132.814 119.967 133 120.25L133.624 120.207L133.488 120.839L112.527 113.493C113.316 112.405 112.995 104.533 113.011 102.712Z"/>
	<defs>
		<linearGradient id="gradient_5" gradientUnits="userSpaceOnUse" x1="129.87006" y1="55.644585" x2="129.00728" y2="64.10659">
			<stop offset="0" stop-color="#9D9D9C"/>
			<stop offset="1" stop-color="#BBBABA"/>
		</linearGradient>
	</defs>
	<path fill="url(#gradient_5)" d="M113.023 58.0787L113.42 57.1116C116.819 55.9554 120.017 55.1288 123.625 55.1275C124.593 55.1271 125.633 55.0596 126.567 55.3294C127.835 55.6962 129.41 55.7897 130.74 56.0853C133.359 56.6671 136.543 57.7062 139.02 58.7529C139.608 59.0012 140.494 59.21 140.971 59.6192C141.151 59.7734 141.227 59.7727 141.442 59.839C141.847 59.9638 142.254 60.234 142.626 60.4375L142.597 60.716C143.023 61.0517 143.449 61.5028 144.014 61.5116C144.202 61.7686 144.202 61.7607 144.532 61.8141C144.685 61.8389 144.632 61.8316 144.809 61.8121L163.197 85.1907L162.312 84.786C161.571 83.6301 159.576 81.9654 159.273 80.7295C159.174 80.3243 158.454 80.0073 158.25 79.375C157.977 79.2375 156.622 77.6734 156.485 77.3591C155.923 76.0685 154.145 75.1927 153.773 73.7251C153.705 73.4549 152.989 72.9573 152.751 72.7488C152.632 72.0815 151.903 71.9327 151.764 71.2207L151.75 71.125L151.049 70.6921C150.67 69.8496 150.098 69.3587 149.587 68.6192L149.514 68.5116C148.91 68.35 148.682 68.1202 148.285 67.6641L148.582 67.4292C148.135 66.9278 147.942 66.558 147.283 66.3833L147.062 66.6875C147.471 66.9534 147.634 67.0103 147.85 67.4589L147.177 67.3735L146.875 67.6225C146.553 67.0065 146.414 66.1777 146.063 65.6284C145.58 64.8741 143.563 64.1354 142.757 63.7988C138.936 62.2026 135.057 60.7066 130.983 59.873C129.243 59.517 127.487 59.4789 125.764 59.1697C125.062 59.0437 124.306 59.2141 123.602 59.2766C120.215 59.577 116.191 60.9769 113.386 62.8779L113.376 70.3063C113.375 71.1889 113.186 72.435 113.485 73.2471C113.984 74.6017 113.421 76.5614 113.65 78.0188L113.683 78.2162C113.817 79.0614 113.657 79.551 113.159 80.2284L113.037 80.3913L112.968 78.2941L113.023 58.0787Z"/>
	<defs>
		<linearGradient id="gradient_6" gradientUnits="userSpaceOnUse" x1="128.8288" y1="42.47995" x2="126.96963" y2="58.356575">
			<stop offset="0" stop-color="#3E3D3E"/>
			<stop offset="1" stop-color="#A4A3A3"/>
		</linearGradient>
	</defs>
	<path fill="url(#gradient_6)" d="M113.023 58.0787L113.025 41.3404C114.778 41.3406 117.574 40.9704 119.194 41.4818C119.738 41.6537 120.21 41.5404 120.75 41.6284C122.788 41.9608 124.828 42.0885 126.853 42.5473C127.447 42.6819 128.305 42.753 128.831 42.4188L128.857 41.4319L139.911 55.4747C141.474 57.4512 143.591 59.6425 144.809 61.8121C144.632 61.8316 144.685 61.8389 144.532 61.8141C144.202 61.7607 144.202 61.7686 144.014 61.5116C143.449 61.5028 143.023 61.0517 142.597 60.716L142.626 60.4375C142.254 60.234 141.847 59.9638 141.442 59.839C141.227 59.7727 141.151 59.7734 140.971 59.6192C140.494 59.21 139.608 59.0012 139.02 58.7529C136.543 57.7062 133.359 56.6671 130.74 56.0853C129.41 55.7897 127.835 55.6962 126.567 55.3294C125.633 55.0596 124.593 55.1271 123.625 55.1275C120.017 55.1288 116.819 55.9554 113.42 57.1116L113.023 58.0787Z"/>
	<path fill="#333" d="M112.527 113.493L133.488 120.839L163.516 132.597L174.419 136.477L189.769 142.152C190.255 142.468 190.726 142.65 191.268 142.837L199.712 146.087C200.998 146.821 203.715 147.913 205.114 148.22L205.999 148.501C206.19 148.832 206.237 148.993 206.25 149.375C206.653 149.993 209.261 151.129 210.134 151.339C210.899 151.523 211.777 151.408 212.56 151.519L215.486 151.678C216.058 152.27 216.262 152.436 216.482 153.25L216.101 154.284C212.918 159.791 210.363 165.813 207.566 171.533L191.024 205.598L115.114 361.798C114.856 362.327 114.342 363.709 113.78 363.939C113.002 363.341 113.266 359.818 113.262 358.651L113.12 328.094L113.121 309.875C113.116 309.77 113.059 309.304 112.999 309.251C112.92 309.182 112.561 309.195 112.5 309.125C112.226 308.811 112.744 306.706 112.263 305.964C112.263 305.964 112.821 269.914 112.708 267.119L112.724 209.202L112.719 140.939L112.737 123.065C112.74 119.996 113.053 116.506 112.527 113.493Z"/>
	<path fill="#FDFDFD" d="M212.56 151.519L215.486 151.678C216.058 152.27 216.262 152.436 216.482 153.25L216.101 154.284L214.868 154.463C212.644 154.712 210.996 153.282 209.38 151.978L212.56 151.519Z"/>
	<path fill="#FE4C5B" d="M112.527 113.493L133.488 120.839L163.516 132.597C164.457 133.541 166.559 135.552 166.561 136.967C166.565 139.783 166.174 142.589 166.271 145.405C166.394 148.934 167.179 152.493 167.239 156.002C167.291 159.051 166.65 161.912 166.334 164.911C166.188 166.301 166.355 167.802 166.098 169.16C165.735 171.083 164.383 172.511 163.352 174.102C162.062 176.091 161.536 177.865 161.316 180.213C159.747 181.579 158.3 182.808 157.056 184.501C156.183 185.689 155.287 186.936 154.585 188.234C153.636 189.99 153.073 192.48 151.375 193.628L151.255 193.711C149.341 195.01 147.018 195.512 145.085 196.932C143.97 197.751 143.095 198.805 142.194 199.844C141.868 200.219 141.377 200.922 140.973 201.172C140.309 201.583 138.339 201.312 137.401 201.708C135.809 202.381 134.36 203.625 132.786 204.407C128.935 206.322 125.625 207.279 121.442 208.177C118.426 208.824 115.839 209.34 112.724 209.202L112.719 140.939L112.737 123.065C112.74 119.996 113.053 116.506 112.527 113.493Z"/>
	<path fill="#060606" d="M9.52022 151.956L112.634 21.041C115.836 24.2882 118.944 28.5743 121.576 32.3012L128.857 41.4319L128.831 42.4188C128.305 42.753 127.447 42.6819 126.853 42.5473C124.828 42.0885 122.788 41.9608 120.75 41.6284C120.21 41.5404 119.738 41.6537 119.194 41.4818C117.574 40.9704 114.778 41.3406 113.025 41.3404L113.023 58.0787L112.968 78.2941L113.037 80.3913L112.982 91.6451L112.962 96.2312L113.011 102.712C112.995 104.533 113.316 112.405 112.527 113.493C113.053 116.506 112.74 119.996 112.737 123.065L112.719 140.939L112.724 209.202L112.708 267.119C112.47 268.608 112.482 270.133 112.409 271.637C112.38 272.244 112.195 272.792 112.348 273.394L112.377 273.5L112.127 273.875L112.375 274.25C112.08 275.039 112.233 275.344 112.25 276.125L112.25 281.125C112.243 282.419 112.011 284.171 112.218 285.437C112.4 286.553 112.384 288.64 112.189 289.75C111.933 291.202 112.493 293.144 112.001 294.501C111.906 294.764 111.867 294.873 111.9 295.148C111.963 295.661 111.897 296.169 111.956 296.677C111.982 296.893 112.015 297.063 111.975 297.281C111.589 299.348 111.87 302.236 111.877 304.375L111.78 304.424C111.278 304.39 110.839 304.401 110.445 304.059C109.795 303.494 108.405 302.944 107.56 302.687C107.355 302.625 107.284 302.615 107.119 302.464C106.717 302.098 106.001 301.849 105.493 301.653C105.187 301.535 104.991 301.443 104.737 301.229C104.369 300.92 103.883 300.805 103.564 300.464C103.27 300.149 102.808 300.174 102.422 299.804C101.619 299.669 101 299.156 100.212 298.908C99.9079 298.813 99.6372 298.671 99.3156 298.645C98.8521 298.609 97.996 297.809 97.5697 297.593C97.2313 297.422 97.1082 297.642 96.6774 297.314C96.1511 297.421 92.9635 296.552 92.3327 296.257C91.959 296.083 91.0613 295.944 90.6353 295.907C89.3843 295.8 87.3314 295.825 86.2252 295.447L86.1115 295.406C85.3199 295.712 84.5227 295.44 83.7685 295.685C82.5795 296.073 81.3573 295.597 80.2337 295.895C79.7746 296.016 79.5378 296.752 79.336 297.156C79.045 296.652 78.8154 296.247 78.7314 295.662L78.7158 295.534C77.7166 294.897 77.1185 292.435 76.4865 291.388C74.6022 288.269 73.2659 284.555 71.6248 281.262C71.1812 280.372 69.5599 277.806 69.6605 276.958C69.1529 276.692 68.2729 274.661 68.0764 274.073C67.8293 273.335 67.308 272.734 67.0503 272.001C66.2973 269.858 64.9012 267.836 63.9951 265.755L59.1875 255.812C57.9672 253.175 56.7588 249.959 55.0452 247.63L54.9547 247.509C54.4932 247.333 54.4501 246.962 54.2443 246.528L20.8604 177.864L13.8068 163.34C12.3615 160.362 11.0621 157.044 9.14017 154.343C8.97745 154.031 8.74925 153.663 8.7357 153.305C8.71442 152.742 9.18511 152.37 9.52022 151.956Z"/>
	<path fill="#FDFDFD" d="M9.52022 151.956L9.68177 151.952C10.5617 151.926 11.2276 151.412 12.0761 151.394C12.9152 151.375 13.7783 151.606 14.6171 151.678L19.6242 152.006C18.4474 152.747 17.3014 152.898 16 153.284C13.4233 154.048 11.8808 154.791 9.14017 154.343C8.97745 154.031 8.74925 153.663 8.7357 153.305C8.71442 152.742 9.18511 152.37 9.52022 151.956Z"/>
	<path fill="#333" d="M121.576 32.3012L128.857 41.4319L128.831 42.4188C128.305 42.753 127.447 42.6819 126.853 42.5473C124.828 42.0885 122.788 41.9608 120.75 41.6284C120.21 41.5404 119.738 41.6537 119.194 41.4818C117.574 40.9704 114.778 41.3406 113.025 41.3404L113.023 58.0787L112.968 78.2941C112.632 74.7039 112.826 70.959 112.817 67.3518L112.755 48.0048L112.788 38.2917C112.802 37.2182 112.611 35.6919 112.956 34.7065L113.005 37.7398C115.358 37.2688 119.059 37.4735 121.397 38.009C122.206 38.1942 124.394 38.3516 125.08 37.9195C125.055 36.9695 123.362 35.137 122.717 34.4464C122.126 33.8137 121.876 33.096 121.576 32.3012Z"/>
	<defs>
		<linearGradient id="gradient_7" gradientUnits="userSpaceOnUse" x1="76.604019" y1="106.13948" x2="111.51805" y2="208.49384">
			<stop offset="0" stop-color="#240101"/>
			<stop offset="1" stop-color="#490D0F"/>
		</linearGradient>
	</defs>
	<path fill="url(#gradient_7)" d="M112.724 209.202C108.276 209.376 104.055 208.546 99.7623 207.531C97.3998 206.972 94.6611 206.325 92.5 205.203C90.7798 204.31 89.4114 202.892 87.7142 201.942C86.3363 201.171 84.602 201.173 83.1485 200.418C81.9836 199.813 80.7187 199.037 79.7634 198.132C78.8106 197.229 77.9827 196.113 76.9625 195.294C75.3748 194.021 73.6494 192.997 72.1217 191.618C68.8563 188.67 66.3665 184.446 64.1966 180.666C62.9095 178.423 61.557 176.155 60.7579 173.68C59.74 170.528 59.3444 166.922 58.5643 163.671C57.7733 160.376 56.7067 156.915 56.5359 153.532C56.4223 151.284 56.7057 148.959 56.9483 146.726C57.3096 143.399 57.7395 139.849 58.9828 136.723C59.9041 134.407 61.2785 132.296 62.2523 130C63.0577 128.101 63.5681 125.619 64.6524 123.937C65.6941 122.32 67.8017 121.366 68.9711 119.766C70.1393 118.169 70.7501 116.437 72.1368 114.902C74.1916 112.628 76.4113 110.16 78.849 108.301C83.3623 104.86 88.4712 102.921 93.6303 100.726C95.6437 99.87 97.5712 98.828 99.6872 98.2276C103.059 97.2708 106.782 96.7565 110.287 96.594C111.584 96.5338 111.664 96.5545 112.595 97.4141L112.962 96.2312L113.011 102.712C112.995 104.533 113.316 112.405 112.527 113.493C113.053 116.506 112.74 119.996 112.737 123.065L112.719 140.939L112.724 209.202Z"/>
</svg>
